<mxfile host="app.diagrams.net" modified="2022-10-13T06:33:15.557Z" agent="5.0 (Windows NT 10.0; Win64; x64) AppleWebKit/537.36 (KHTML, like Gecko) Chrome/106.0.0.0 Safari/537.36" etag="wpsf1KZ2gDznPC9yjqCL" version="15.7.3" type="github">
  <diagram id="qgrDGu5Jhik-7Aq8YZ4Q" name="Page-1">
    <mxGraphModel dx="1185" dy="628" grid="1" gridSize="10" guides="1" tooltips="1" connect="1" arrows="1" fold="1" page="1" pageScale="1" pageWidth="827" pageHeight="1169" math="0" shadow="0">
      <root>
        <mxCell id="0" />
        <mxCell id="1" parent="0" />
        <mxCell id="8lhIoL6uszm39GJJ-NDp-6" value="" style="edgeStyle=orthogonalEdgeStyle;rounded=0;orthogonalLoop=1;jettySize=auto;html=1;fontSize=10;" edge="1" parent="1" source="8lhIoL6uszm39GJJ-NDp-1" target="8lhIoL6uszm39GJJ-NDp-5">
          <mxGeometry relative="1" as="geometry" />
        </mxCell>
        <mxCell id="8lhIoL6uszm39GJJ-NDp-1" value="&lt;br&gt;&lt;br&gt;사용자" style="shape=actor;whiteSpace=wrap;html=1;" vertex="1" parent="1">
          <mxGeometry x="360" y="40" width="40" height="50" as="geometry" />
        </mxCell>
        <mxCell id="8lhIoL6uszm39GJJ-NDp-8" value="No" style="edgeStyle=orthogonalEdgeStyle;rounded=0;orthogonalLoop=1;jettySize=auto;html=1;fontSize=10;exitX=1;exitY=0.5;exitDx=0;exitDy=0;" edge="1" parent="1" source="8lhIoL6uszm39GJJ-NDp-34" target="8lhIoL6uszm39GJJ-NDp-7">
          <mxGeometry x="0.2859" relative="1" as="geometry">
            <mxPoint x="380" y="240" as="sourcePoint" />
            <mxPoint as="offset" />
          </mxGeometry>
        </mxCell>
        <mxCell id="8lhIoL6uszm39GJJ-NDp-10" value="" style="edgeStyle=orthogonalEdgeStyle;rounded=0;orthogonalLoop=1;jettySize=auto;html=1;fontSize=10;exitX=0;exitY=0.5;exitDx=0;exitDy=0;" edge="1" parent="1" source="8lhIoL6uszm39GJJ-NDp-34" target="8lhIoL6uszm39GJJ-NDp-9">
          <mxGeometry relative="1" as="geometry">
            <mxPoint x="380" y="240" as="sourcePoint" />
          </mxGeometry>
        </mxCell>
        <mxCell id="8lhIoL6uszm39GJJ-NDp-36" value="Yes" style="edgeLabel;html=1;align=center;verticalAlign=middle;resizable=0;points=[];fontSize=10;" vertex="1" connectable="0" parent="8lhIoL6uszm39GJJ-NDp-10">
          <mxGeometry x="0.1525" y="2" relative="1" as="geometry">
            <mxPoint x="-2" y="9" as="offset" />
          </mxGeometry>
        </mxCell>
        <mxCell id="8lhIoL6uszm39GJJ-NDp-35" value="" style="edgeStyle=orthogonalEdgeStyle;rounded=0;orthogonalLoop=1;jettySize=auto;html=1;fontSize=10;" edge="1" parent="1" source="8lhIoL6uszm39GJJ-NDp-5" target="8lhIoL6uszm39GJJ-NDp-34">
          <mxGeometry relative="1" as="geometry" />
        </mxCell>
        <mxCell id="8lhIoL6uszm39GJJ-NDp-5" value="프로그램 시작" style="whiteSpace=wrap;html=1;" vertex="1" parent="1">
          <mxGeometry x="320" y="120" width="120" height="40" as="geometry" />
        </mxCell>
        <mxCell id="8lhIoL6uszm39GJJ-NDp-63" style="edgeStyle=none;rounded=0;orthogonalLoop=1;jettySize=auto;html=1;exitX=0.5;exitY=1;exitDx=0;exitDy=0;entryX=0;entryY=0.5;entryDx=0;entryDy=0;fontSize=10;" edge="1" parent="1" source="8lhIoL6uszm39GJJ-NDp-9" target="8lhIoL6uszm39GJJ-NDp-37">
          <mxGeometry relative="1" as="geometry">
            <Array as="points">
              <mxPoint x="260" y="400" />
            </Array>
          </mxGeometry>
        </mxCell>
        <mxCell id="8lhIoL6uszm39GJJ-NDp-64" value="회원 정보 확인" style="edgeLabel;html=1;align=center;verticalAlign=middle;resizable=0;points=[];fontSize=10;" vertex="1" connectable="0" parent="8lhIoL6uszm39GJJ-NDp-63">
          <mxGeometry x="-0.387" y="1" relative="1" as="geometry">
            <mxPoint x="-1" y="15" as="offset" />
          </mxGeometry>
        </mxCell>
        <mxCell id="8lhIoL6uszm39GJJ-NDp-9" value="로그인" style="whiteSpace=wrap;html=1;" vertex="1" parent="1">
          <mxGeometry x="200" y="280" width="120" height="40" as="geometry" />
        </mxCell>
        <mxCell id="8lhIoL6uszm39GJJ-NDp-25" value="" style="edgeStyle=orthogonalEdgeStyle;rounded=0;orthogonalLoop=1;jettySize=auto;html=1;fontSize=10;" edge="1" parent="1" target="8lhIoL6uszm39GJJ-NDp-24">
          <mxGeometry relative="1" as="geometry">
            <mxPoint x="100" y="580" as="sourcePoint" />
          </mxGeometry>
        </mxCell>
        <mxCell id="8lhIoL6uszm39GJJ-NDp-23" value="" style="edgeStyle=orthogonalEdgeStyle;rounded=0;orthogonalLoop=1;jettySize=auto;html=1;fontSize=10;" edge="1" parent="1" target="8lhIoL6uszm39GJJ-NDp-22">
          <mxGeometry relative="1" as="geometry">
            <mxPoint x="320" y="560" as="sourcePoint" />
          </mxGeometry>
        </mxCell>
        <mxCell id="8lhIoL6uszm39GJJ-NDp-61" style="edgeStyle=none;rounded=0;orthogonalLoop=1;jettySize=auto;html=1;exitX=0.5;exitY=1.06;exitDx=0;exitDy=0;entryX=1;entryY=0.5;entryDx=0;entryDy=0;fontSize=10;exitPerimeter=0;" edge="1" parent="1" source="8lhIoL6uszm39GJJ-NDp-7" target="8lhIoL6uszm39GJJ-NDp-37">
          <mxGeometry relative="1" as="geometry">
            <Array as="points">
              <mxPoint x="500" y="400" />
            </Array>
          </mxGeometry>
        </mxCell>
        <mxCell id="8lhIoL6uszm39GJJ-NDp-62" value="ID 중복 확인" style="edgeLabel;html=1;align=center;verticalAlign=middle;resizable=0;points=[];fontSize=10;" vertex="1" connectable="0" parent="8lhIoL6uszm39GJJ-NDp-61">
          <mxGeometry x="-0.3479" y="1" relative="1" as="geometry">
            <mxPoint y="8" as="offset" />
          </mxGeometry>
        </mxCell>
        <mxCell id="8lhIoL6uszm39GJJ-NDp-7" value="회원가입" style="whiteSpace=wrap;html=1;" vertex="1" parent="1">
          <mxGeometry x="440" y="280" width="120" height="40" as="geometry" />
        </mxCell>
        <mxCell id="8lhIoL6uszm39GJJ-NDp-34" value="회원인가?" style="rhombus;whiteSpace=wrap;html=1;" vertex="1" parent="1">
          <mxGeometry x="340" y="180" width="80" height="80" as="geometry" />
        </mxCell>
        <mxCell id="8lhIoL6uszm39GJJ-NDp-56" style="edgeStyle=none;rounded=0;orthogonalLoop=1;jettySize=auto;html=1;entryX=1;entryY=0.5;entryDx=0;entryDy=0;fontSize=10;exitX=0.342;exitY=0.022;exitDx=0;exitDy=0;exitPerimeter=0;" edge="1" parent="1" source="8lhIoL6uszm39GJJ-NDp-37" target="8lhIoL6uszm39GJJ-NDp-9">
          <mxGeometry relative="1" as="geometry">
            <mxPoint x="380" y="390" as="sourcePoint" />
            <Array as="points">
              <mxPoint x="361" y="400" />
              <mxPoint x="361" y="300" />
            </Array>
          </mxGeometry>
        </mxCell>
        <mxCell id="8lhIoL6uszm39GJJ-NDp-57" value="회원가입 성공" style="edgeLabel;html=1;align=center;verticalAlign=middle;resizable=0;points=[];fontSize=10;" vertex="1" connectable="0" parent="8lhIoL6uszm39GJJ-NDp-56">
          <mxGeometry x="0.0839" relative="1" as="geometry">
            <mxPoint x="-21" y="3" as="offset" />
          </mxGeometry>
        </mxCell>
        <mxCell id="8lhIoL6uszm39GJJ-NDp-58" style="edgeStyle=none;rounded=0;orthogonalLoop=1;jettySize=auto;html=1;exitX=0.678;exitY=0.026;exitDx=0;exitDy=0;fontSize=10;entryX=0;entryY=0.5;entryDx=0;entryDy=0;exitPerimeter=0;" edge="1" parent="1" source="8lhIoL6uszm39GJJ-NDp-37" target="8lhIoL6uszm39GJJ-NDp-7">
          <mxGeometry relative="1" as="geometry">
            <mxPoint x="542" y="322" as="targetPoint" />
            <Array as="points">
              <mxPoint x="401" y="300" />
            </Array>
          </mxGeometry>
        </mxCell>
        <mxCell id="8lhIoL6uszm39GJJ-NDp-59" value="회원가입 실패" style="edgeLabel;html=1;align=center;verticalAlign=middle;resizable=0;points=[];fontSize=10;" vertex="1" connectable="0" parent="8lhIoL6uszm39GJJ-NDp-58">
          <mxGeometry x="-0.0664" y="1" relative="1" as="geometry">
            <mxPoint x="20" y="20" as="offset" />
          </mxGeometry>
        </mxCell>
        <mxCell id="8lhIoL6uszm39GJJ-NDp-65" style="edgeStyle=none;rounded=0;orthogonalLoop=1;jettySize=auto;html=1;exitX=0.5;exitY=1;exitDx=0;exitDy=0;entryX=0.187;entryY=1.011;entryDx=0;entryDy=0;fontSize=10;entryPerimeter=0;" edge="1" parent="1">
          <mxGeometry relative="1" as="geometry">
            <mxPoint x="380" y="429.56" as="sourcePoint" />
            <mxPoint x="222.43999999999994" y="320.00000000000006" as="targetPoint" />
            <Array as="points">
              <mxPoint x="380" y="449.56" />
              <mxPoint x="300" y="449.56" />
              <mxPoint x="222" y="449.56" />
            </Array>
          </mxGeometry>
        </mxCell>
        <mxCell id="8lhIoL6uszm39GJJ-NDp-66" value="로그인 실패" style="edgeLabel;html=1;align=center;verticalAlign=middle;resizable=0;points=[];fontSize=10;" vertex="1" connectable="0" parent="8lhIoL6uszm39GJJ-NDp-65">
          <mxGeometry x="0.4995" y="1" relative="1" as="geometry">
            <mxPoint x="79" y="52" as="offset" />
          </mxGeometry>
        </mxCell>
        <mxCell id="8lhIoL6uszm39GJJ-NDp-68" value="" style="edgeStyle=none;rounded=0;orthogonalLoop=1;jettySize=auto;html=1;fontSize=10;entryX=0.5;entryY=0;entryDx=0;entryDy=0;" edge="1" parent="1" source="8lhIoL6uszm39GJJ-NDp-37" target="8lhIoL6uszm39GJJ-NDp-42">
          <mxGeometry relative="1" as="geometry">
            <mxPoint x="380" y="540" as="targetPoint" />
          </mxGeometry>
        </mxCell>
        <mxCell id="8lhIoL6uszm39GJJ-NDp-69" value="로그인 성공" style="edgeLabel;html=1;align=center;verticalAlign=middle;resizable=0;points=[];fontSize=10;" vertex="1" connectable="0" parent="8lhIoL6uszm39GJJ-NDp-68">
          <mxGeometry x="0.3333" y="1" relative="1" as="geometry">
            <mxPoint x="-1" y="7" as="offset" />
          </mxGeometry>
        </mxCell>
        <mxCell id="8lhIoL6uszm39GJJ-NDp-74" style="edgeStyle=none;rounded=0;orthogonalLoop=1;jettySize=auto;html=1;exitX=1;exitY=1;exitDx=0;exitDy=0;fontSize=10;" edge="1" parent="1" source="8lhIoL6uszm39GJJ-NDp-37">
          <mxGeometry relative="1" as="geometry">
            <mxPoint x="500" y="640" as="targetPoint" />
            <Array as="points">
              <mxPoint x="422" y="640" />
            </Array>
          </mxGeometry>
        </mxCell>
        <mxCell id="8lhIoL6uszm39GJJ-NDp-75" value="회원 정보" style="edgeLabel;html=1;align=center;verticalAlign=middle;resizable=0;points=[];fontSize=10;" vertex="1" connectable="0" parent="8lhIoL6uszm39GJJ-NDp-74">
          <mxGeometry x="0.6986" relative="1" as="geometry">
            <mxPoint x="15" as="offset" />
          </mxGeometry>
        </mxCell>
        <mxCell id="8lhIoL6uszm39GJJ-NDp-37" value="Accounts.csv" style="ellipse;whiteSpace=wrap;html=1;" vertex="1" parent="1">
          <mxGeometry x="320" y="370" width="120" height="60" as="geometry" />
        </mxCell>
        <mxCell id="8lhIoL6uszm39GJJ-NDp-45" value="" style="edgeStyle=orthogonalEdgeStyle;rounded=0;orthogonalLoop=1;jettySize=auto;html=1;fontSize=10;entryX=0.5;entryY=0;entryDx=0;entryDy=0;" edge="1" parent="1" source="8lhIoL6uszm39GJJ-NDp-42" target="8lhIoL6uszm39GJJ-NDp-44">
          <mxGeometry relative="1" as="geometry" />
        </mxCell>
        <mxCell id="8lhIoL6uszm39GJJ-NDp-47" value="" style="edgeStyle=orthogonalEdgeStyle;rounded=0;orthogonalLoop=1;jettySize=auto;html=1;fontSize=10;entryX=0.5;entryY=0;entryDx=0;entryDy=0;" edge="1" parent="1" source="8lhIoL6uszm39GJJ-NDp-42" target="8lhIoL6uszm39GJJ-NDp-46">
          <mxGeometry relative="1" as="geometry" />
        </mxCell>
        <mxCell id="8lhIoL6uszm39GJJ-NDp-42" value="기능 선택" style="rhombus;whiteSpace=wrap;html=1;" vertex="1" parent="1">
          <mxGeometry x="340" y="480" width="80" height="80" as="geometry" />
        </mxCell>
        <mxCell id="8lhIoL6uszm39GJJ-NDp-77" style="edgeStyle=none;rounded=0;orthogonalLoop=1;jettySize=auto;html=1;fontSize=10;entryX=0.5;entryY=0;entryDx=0;entryDy=0;" edge="1" parent="1" source="8lhIoL6uszm39GJJ-NDp-44" target="8lhIoL6uszm39GJJ-NDp-80">
          <mxGeometry relative="1" as="geometry">
            <mxPoint x="500" y="750" as="targetPoint" />
          </mxGeometry>
        </mxCell>
        <mxCell id="8lhIoL6uszm39GJJ-NDp-82" value="콘텐츠 기반 추천 알고리즘" style="edgeLabel;html=1;align=center;verticalAlign=middle;resizable=0;points=[];fontSize=10;" vertex="1" connectable="0" parent="8lhIoL6uszm39GJJ-NDp-77">
          <mxGeometry x="-0.3387" y="1" relative="1" as="geometry">
            <mxPoint x="-1" y="47" as="offset" />
          </mxGeometry>
        </mxCell>
        <mxCell id="8lhIoL6uszm39GJJ-NDp-84" value="추천 도서 리스트" style="edgeLabel;html=1;align=center;verticalAlign=middle;resizable=0;points=[];fontSize=10;" vertex="1" connectable="0" parent="8lhIoL6uszm39GJJ-NDp-77">
          <mxGeometry x="0.3994" y="1" relative="1" as="geometry">
            <mxPoint y="18" as="offset" />
          </mxGeometry>
        </mxCell>
        <mxCell id="8lhIoL6uszm39GJJ-NDp-44" value="도서 추천" style="whiteSpace=wrap;html=1;" vertex="1" parent="1">
          <mxGeometry x="440" y="560" width="120" height="40" as="geometry" />
        </mxCell>
        <mxCell id="8lhIoL6uszm39GJJ-NDp-72" value="" style="edgeStyle=none;rounded=0;orthogonalLoop=1;jettySize=auto;html=1;fontSize=10;" edge="1" parent="1" source="8lhIoL6uszm39GJJ-NDp-46" target="8lhIoL6uszm39GJJ-NDp-71">
          <mxGeometry relative="1" as="geometry">
            <Array as="points">
              <mxPoint x="260" y="680" />
            </Array>
          </mxGeometry>
        </mxCell>
        <mxCell id="8lhIoL6uszm39GJJ-NDp-73" value="도서 검색 알고리즘" style="edgeLabel;html=1;align=center;verticalAlign=middle;resizable=0;points=[];fontSize=10;" vertex="1" connectable="0" parent="8lhIoL6uszm39GJJ-NDp-72">
          <mxGeometry x="-0.3054" y="2" relative="1" as="geometry">
            <mxPoint x="-2" y="-9" as="offset" />
          </mxGeometry>
        </mxCell>
        <mxCell id="8lhIoL6uszm39GJJ-NDp-46" value="도서 검색" style="whiteSpace=wrap;html=1;" vertex="1" parent="1">
          <mxGeometry x="200" y="560" width="120" height="40" as="geometry" />
        </mxCell>
        <mxCell id="8lhIoL6uszm39GJJ-NDp-76" value="도서 정보" style="edgeStyle=none;rounded=0;orthogonalLoop=1;jettySize=auto;html=1;fontSize=10;" edge="1" parent="1" source="8lhIoL6uszm39GJJ-NDp-71">
          <mxGeometry relative="1" as="geometry">
            <mxPoint x="500" y="680" as="targetPoint" />
          </mxGeometry>
        </mxCell>
        <mxCell id="8lhIoL6uszm39GJJ-NDp-81" value="" style="edgeStyle=none;rounded=0;orthogonalLoop=1;jettySize=auto;html=1;fontSize=10;" edge="1" parent="1" source="8lhIoL6uszm39GJJ-NDp-71" target="8lhIoL6uszm39GJJ-NDp-80">
          <mxGeometry relative="1" as="geometry">
            <Array as="points">
              <mxPoint x="380" y="780" />
            </Array>
          </mxGeometry>
        </mxCell>
        <mxCell id="8lhIoL6uszm39GJJ-NDp-83" value="도서 검색 결과 리스트" style="edgeLabel;html=1;align=center;verticalAlign=middle;resizable=0;points=[];fontSize=10;" vertex="1" connectable="0" parent="8lhIoL6uszm39GJJ-NDp-81">
          <mxGeometry x="-0.5377" relative="1" as="geometry">
            <mxPoint as="offset" />
          </mxGeometry>
        </mxCell>
        <mxCell id="8lhIoL6uszm39GJJ-NDp-71" value="Books.cvs" style="ellipse;whiteSpace=wrap;html=1;" vertex="1" parent="1">
          <mxGeometry x="320" y="650" width="120" height="60" as="geometry" />
        </mxCell>
        <mxCell id="8lhIoL6uszm39GJJ-NDp-80" value="도서 출력" style="whiteSpace=wrap;html=1;" vertex="1" parent="1">
          <mxGeometry x="440" y="760" width="120" height="40" as="geometry" />
        </mxCell>
      </root>
    </mxGraphModel>
  </diagram>
</mxfile>
